<?xml version="1.0" encoding="utf-8"?>
<!-- Generator: Adobe Illustrator 24.0.2, SVG Export Plug-In . SVG Version: 6.00 Build 0)  -->
<svg version="1.1" xmlns="http://www.w3.org/2000/svg" xmlns:xlink="http://www.w3.org/1999/xlink" x="0px" y="0px"
	 viewBox="0 0 24 24" style="enable-background:new 0 0 24 24;" xml:space="preserve">
<style type="text/css">
	.st0{fill:none;}
	.st1{fill:#66a1ee;}
</style>
<g id="bounding_box">
	<rect class="st0" width="24" height="24"/>
</g>
<g id="design">
	<g>
		<path class="st1" d="M17,18c-0.22,0-0.44-0.07-0.63-0.22c-0.43-0.35-0.49-0.98-0.15-1.41l3.5-4.3l-3.5-4.45
			c-0.34-0.43-0.27-1.06,0.17-1.4c0.43-0.34,1.06-0.27,1.4,0.17l4,5.08c0.29,0.37,0.29,0.89-0.01,1.25l-4,4.92
			C17.58,17.87,17.29,18,17,18z"/>
		<path class="st1" d="M7,18c-0.3,0-0.59-0.13-0.79-0.38l-4-5.08c-0.29-0.37-0.29-0.89,0.01-1.25l4-4.92
			C6.57,5.94,7.2,5.88,7.63,6.22C8.06,6.57,8.12,7.2,7.78,7.63l-3.5,4.3l3.5,4.45c0.34,0.43,0.27,1.06-0.17,1.4
			C7.44,17.93,7.22,18,7,18z"/>
		<path class="st1" d="M11,18c-0.07,0-0.13-0.01-0.2-0.02c-0.54-0.11-0.89-0.64-0.78-1.18l2-10c0.11-0.54,0.63-0.89,1.18-0.78
			c0.54,0.11,0.89,0.64,0.78,1.18l-2,10C11.89,17.67,11.47,18,11,18z"/>
	</g>
</g>
</svg>
